<svg xmlns="http://www.w3.org/2000/svg" viewBox="0 0 1920 886.46"><defs><style>.cls-1{fill:#dc8282;}</style></defs><title>Asset 1</title><g id="Layer_2" data-name="Layer 2"><g id="Layer_1-2" data-name="Layer 1"><path class="cls-1" d="M1919.5,885.78c-118.64-37.6-235.39-78.8-347-122.44-74-28.93-330.72-128.11-529.57-190.18-156.65-48.89-332-78.08-469.15-78.08a801.12,801.12,0,0,0-93.38,5.08C273.51,524.64,103.15,599.39.5,710.69V.5h1919Z"/><path d="M1919,1V885.1c-118.4-37.54-234.91-78.67-346.31-122.23-74-28.92-330.74-128.12-529.6-190.19-156.7-48.9-332.14-78.1-469.3-78.1a802.18,802.18,0,0,0-93.44,5.08C273.91,524.09,103.82,598.54,1,709.42V1H1919m1-1H0V712C99.84,603.11,267.52,525.85,480.47,500.66a798.12,798.12,0,0,1,93.32-5.08c147.11,0,323.39,32.61,469,78.06,165.14,51.54,380.94,132.05,529.53,190.16,123.61,48.34,241.54,89,347.68,122.66V0Z"/></g></g></svg>